_____________________________________________________________________________________

Plot: After Defeating His Arch Nemesis Metroman, A Super-villain Megamind tries to 

figure out wat to do next.
_____________________________________________________________________________________

This Movie Has Been Optimised For LG Cinema3D
_____________________________________________________________________________________

Any Queries Shud B Put Forth In The Comment Section. I will Try To Answer It As Soon

As Possible
_____________________________________________________________________________________

Note:

This Is Real Half Side-By-Side 3D.

Language : English

3D Type  : Stereoscopic 3D

To watch It In Anaglyph, Download Stereoscopic Player
_____________________________________________________________________________________

Format                                   : Matroska
Format version                           : Version 2
File size                                : 1.45 GiB
Duration                                 : 1h 47mn
Overall bit rate                         : 1 931 Kbps
Encoded date                             : UTC 2012-03-05 15:50:26
Writing application                      : Lavf54.0.100
Writing library                          : Lavf54.0.100

Video
ID                                       : 1
Format                                   : AVC
Format/Info                              : Advanced Video Codec
Format profile                           : High@L4.1
Format settings, CABAC                   : Yes
Format settings, ReFrames                : 2 frames
Codec ID                                 : V_MPEG4/ISO/AVC
Duration                                 : 1h 47mn
Bit rate                                 : 1 500 Kbps
Width                                    : 1 920 pixels
Height                                   : 1 080 pixels
Display aspect ratio                     : 16:9
Frame rate mode                          : Variable
Frame rate                               : 23.976 fps
Color space                              : YUV
Chroma subsampling                       : 4:2:0
Bit depth                                : 8 bits
Scan type                                : Progressive
Bits/(Pixel*Frame)                       : 0.030
Stream size                              : 1.08 GiB (75%)
Title                                    : Step Up 3D [Half SBS] [Full HD] [3D]
Language                                 : zzx

Audio
ID                                       : 2
Format                                   : AC-3
Format/Info                              : Audio Coding 3
Mode extension                           : CM (complete main)
Codec ID                                 : A_AC3
Duration                                 : 1h 47mn
Bit rate mode                            : Constant
Bit rate                                 : 448 Kbps
Channel(s)                               : 6 channels
Channel positions                        : Front: L C R, Side: L R, LFE
Sampling rate                            : 48.0 KHz
Bit depth                                : 16 bits
Compression mode                         : Lossy
Stream size                              : 343 MiB (23%)
Title                                    : English
Language                                 : English
_____________________________________________________________________________________

- Nexus Wolf
_____________________________________________________________________________________
		